# xmcd CD database file
#
# Track frame offsets:
#	150
#	22630
#	39742
#
# Disc length: 791 seconds
#
# Revision: 4
# Processed by: cddbd v1.5.1PL0 Copyright (c) Steve Scherf et al.
# Submitted via: CDex 1.51
#
DISCID=16031503
DTITLE=rough laugh - First step
DYEAR=1999
DGENRE=Pop
TTITLE0=First step
TTITLE1=Do it! 〜None of your business〜
TTITLE2=テンパーチャー
EXTD=YEAR: 1999
EXTT0=
EXTT1=
EXTT2=
PLAYORDER=
